<svg xmlns="http://www.w3.org/2000/svg" xmlns:xlink="http://www.w3.org/1999/xlink" width="30" height="30" version="1.1" viewBox="0 0 30 30"><title>Group 36</title><desc>Created with Sketch.</desc><g id="✅--Done" fill="none" fill-rule="evenodd" stroke="none" stroke-width="1"><g id="02-03-02-export-no-modal" stroke="#E72076" transform="translate(-1052.000000, -329.000000)"><g id="Group-14" transform="translate(1052.000000, 320.000000)"><g id="Group-36" transform="translate(0.000000, 9.000000)"><path id="Rectangle" stroke-width="2" d="M4,1 C2.34314575,1 1,2.34314575 1,4 L1,26 C1,27.6568542 2.34314575,29 4,29 L26,29 C27.6568542,29 29,27.6568542 29,26 L29,4 C29,2.34314575 27.6568542,1 26,1 L4,1 Z"/><g id="Group-35" transform="translate(7.000000, 7.000000)"><path id="Shape" stroke-width="1.5" d="M0,0 L3.68325999,3.68325999 M12.3362818,12.3362818 L16,16"/><path id="Shape" stroke-width="1.5" d="M16,0 L12.2848905,3.7151095 M3.63453267,12.3654673 L0,16"/><circle id="Oval" cx="8" cy="8" r="6" stroke-width="2"/></g></g></g></g></g></svg>