<svg xmlns="http://www.w3.org/2000/svg" xmlns:xlink="http://www.w3.org/1999/xlink" width="18" height="18" version="1.1" viewBox="0 0 18 18"><title>Group 34</title><desc>Created with Sketch.</desc><g id="✅--Done" fill="none" fill-rule="evenodd" stroke="none" stroke-width="1"><g id="02-01-dashboard" stroke="#E72076" stroke-width="2" transform="translate(-547.000000, -303.000000)"><g id="Group-33" transform="translate(518.000000, 288.000000)"><g id="Group-32" transform="translate(23.000000, 11.000000)"><g id="Group-34"><g id="Group-31" transform="translate(14.575369, 13.329684) rotate(-32.000000) translate(-14.575369, -13.329684) translate(3.075369, 4.829684)"><path id="Path" d="M4.47434732,8.19469097 C4.47434732,12.612969 7.67313747,16.194691 11.6190451,16.194691 C14.225606,16.194691 16.506157,14.6317816 17.7540139,12.2972451"/><path id="Path" d="M19.0935242,8.59157642 C19.0935242,4.17329842 15.8994996,0.59157642 11.9594705,0.59157642 C9.50679889,0.59157642 7.3432095,1.97952003 6.05922273,4.09320823"/><polyline id="Path-9" points="8.089 10.305 4.589 7.264 1.089 10.305" transform="translate(4.589424, 8.784697) rotate(-10.000000) translate(-4.589424, -8.784697)"/><polyline id="Path-9" points="22.534 6.581 19.034 9.581 15.534 6.581" transform="translate(19.034274, 8.081069) rotate(-7.000000) translate(-19.034274, -8.081069)"/></g></g></g></g></g></g></svg>